<svg width="264" height="264" viewBox="0 0 264 264" fill="none" xmlns="http://www.w3.org/2000/svg">
<rect x="96.8616" y="263.138" width="192" height="192" transform="rotate(-120 96.8616 263.138)" fill="white" fill-opacity="0.01"/>
<rect x="96.9531" y="262.797" width="191.5" height="191.5" transform="rotate(-120 96.9531 262.797)" stroke="#979797" stroke-opacity="0.01" stroke-width="0.5"/>
<path d="M60.9633 187.104C53.5376 182.817 48.9633 174.894 48.9633 166.32L48.9633 98.2359C48.9633 89.6616 53.5376 81.7385 60.9633 77.4513L119.926 43.4094C127.351 39.1222 136.5 39.1222 143.926 43.4094L202.888 77.4513C210.313 81.7385 214.888 89.6616 214.888 98.2359L214.888 166.32C214.888 174.894 210.313 182.817 202.888 187.104L143.926 221.146C136.5 225.433 127.351 225.433 119.926 221.146L60.9633 187.104Z" fill="url(#paint0_linear_0_225)"/>
<mask id="mask0_0_225" style="mask-type:alpha" maskUnits="userSpaceOnUse" x="48" y="40" width="167" height="185">
<path d="M60.9633 187.104C53.5376 182.817 48.9633 174.894 48.9633 166.32L48.9633 98.2359C48.9633 89.6616 53.5376 81.7385 60.9633 77.4513L119.926 43.4094C127.351 39.1222 136.5 39.1222 143.926 43.4094L202.888 77.4513C210.313 81.7385 214.888 89.6616 214.888 98.2359L214.888 166.32C214.888 174.894 210.313 182.817 202.888 187.104L143.926 221.146C136.5 225.433 127.351 225.433 119.926 221.146L60.9633 187.104Z" fill="white"/>
</mask>
<g mask="url(#mask0_0_225)">
<path d="M131.93 228.078L132.102 132.177L214.888 84.3801L214.891 180.18L131.93 228.078Z" fill="white" fill-opacity="0.5"/>
<path d="M48.5823 84.4769L131.721 132.279L214.507 84.482L131.543 36.5797L48.5823 84.4769Z" fill="white" fill-opacity="0.3"/>
</g>
<rect x="111.088" y="212.413" width="117" height="117" transform="rotate(-120 111.088 212.413)" fill="white" fill-opacity="0.01"/>
<rect x="111.179" y="212.071" width="116.5" height="116.5" transform="rotate(-120 111.179 212.071)" stroke="#979797" stroke-opacity="0.01" stroke-width="0.5"/>
<path d="M89.2195 166.084C84.6899 163.468 81.8995 158.635 81.8995 153.405L81.8995 111.934C81.8995 106.703 84.6899 101.87 89.2195 99.2552L125.135 78.5196C129.664 75.9044 135.245 75.9044 139.775 78.5196L175.69 99.2552C180.219 101.87 183.01 106.703 183.01 111.934L183.01 153.405C183.01 158.635 180.219 163.468 175.69 166.084L139.775 186.819C135.245 189.434 129.664 189.434 125.135 186.819L89.2195 166.084Z" fill="url(#paint1_linear_0_225)"/>
<mask id="mask1_0_225" style="mask-type:alpha" maskUnits="userSpaceOnUse" x="81" y="76" width="103" height="113">
<path d="M89.2195 166.084C84.6899 163.468 81.8995 158.635 81.8995 153.405L81.8995 111.934C81.8995 106.703 84.6899 101.87 89.2195 99.2552L125.135 78.5196C129.664 75.9044 135.245 75.9044 139.775 78.5196L175.69 99.2552C180.219 101.87 183.01 106.703 183.01 111.934L183.01 153.405C183.01 158.635 180.219 163.468 175.69 166.084L139.775 186.819C135.245 189.434 129.664 189.434 125.135 186.819L89.2195 166.084Z" fill="white"/>
</mask>
<g mask="url(#mask1_0_225)">
<path d="M132.458 191.047L132.55 139.522C132.557 135.242 134.844 131.291 138.55 129.151L183.01 103.482L183.012 161.86L132.458 191.047Z" fill="white" fill-opacity="0.1"/>
<path d="M81.6674 103.541L126.336 129.224C130.046 131.357 134.611 131.353 138.317 129.213L182.778 103.544L132.221 74.3533L81.6674 103.541Z" fill="white" fill-opacity="0.5"/>
</g>
<defs>
<linearGradient id="paint0_linear_0_225" x1="259.581" y1="14.426" x2="11.2523" y2="-12.3626" gradientUnits="userSpaceOnUse">
<stop stop-color="#F7931A"/>
<stop offset="1" stop-color="#F7B11A"/>
</linearGradient>
<linearGradient id="paint1_linear_0_225" x1="210.244" y1="60.8534" x2="58.9194" y2="44.5292" gradientUnits="userSpaceOnUse">
<stop stop-color="white"/>
<stop offset="1" stop-color="#F7B11A"/>
</linearGradient>
</defs>
</svg>
