<svg width="320" height="320" viewBox="0 0 320 320" fill="none" xmlns="http://www.w3.org/2000/svg">
<rect width="320" height="320" fill="white"/>
<rect x="125" y="291.277" width="192" height="192" transform="rotate(-120 125 291.277)" fill="white" fill-opacity="0.01"/>
<rect x="125.092" y="290.935" width="191.5" height="191.5" transform="rotate(-120 125.092 290.935)" stroke="#979797" stroke-opacity="0.01" stroke-width="0.5"/>
<path d="M89.1017 215.243C81.6761 210.956 77.1017 203.033 77.1017 194.458L77.1017 126.374C77.1017 117.8 81.6761 109.877 89.1017 105.59L148.064 71.5478C155.49 67.2607 164.638 67.2607 172.064 71.5478L231.026 105.59C238.452 109.877 243.026 117.8 243.026 126.374L243.026 194.458C243.026 203.033 238.452 210.956 231.026 215.243L172.064 249.285C164.638 253.572 155.49 253.572 148.064 249.285L89.1017 215.243Z" fill="url(#paint0_linear_101_29)"/>
<mask id="mask0_101_29" style="mask-type:alpha" maskUnits="userSpaceOnUse" x="77" y="68" width="167" height="185">
<path d="M89.1017 215.243C81.6761 210.956 77.1017 203.033 77.1017 194.458L77.1017 126.374C77.1017 117.8 81.6761 109.877 89.1017 105.59L148.064 71.5478C155.49 67.2606 164.638 67.2606 172.064 71.5478L231.026 105.59C238.452 109.877 243.026 117.8 243.026 126.374L243.026 194.458C243.026 203.032 238.452 210.956 231.026 215.243L172.064 249.285C164.638 253.572 155.49 253.572 148.064 249.285L89.1017 215.243Z" fill="white"/>
</mask>
<g mask="url(#mask0_101_29)">
<path d="M160.069 256.216L160.24 160.315L243.027 112.519L243.029 208.319L160.069 256.216Z" fill="white" fill-opacity="0.5"/>
<path d="M76.7207 112.615L159.859 160.417L242.645 112.62L159.681 64.7181L76.7207 112.615Z" fill="white" fill-opacity="0.3"/>
</g>
<rect x="139.226" y="240.551" width="117" height="117" transform="rotate(-120 139.226 240.551)" fill="white" fill-opacity="0.01"/>
<rect x="139.317" y="240.21" width="116.5" height="116.5" transform="rotate(-120 139.317 240.21)" stroke="#979797" stroke-opacity="0.01" stroke-width="0.5"/>
<path d="M117.358 194.222C112.828 191.607 110.038 186.774 110.038 181.543L110.038 140.072C110.038 134.842 112.828 130.009 117.358 127.394L153.273 106.658C157.803 104.043 163.383 104.043 167.913 106.658L203.828 127.394C208.358 130.009 211.148 134.842 211.148 140.072L211.148 181.543C211.148 186.774 208.358 191.607 203.828 194.222L167.913 214.958C163.383 217.573 157.803 217.573 153.273 214.958L117.358 194.222Z" fill="url(#paint1_linear_101_29)"/>
<mask id="mask1_101_29" style="mask-type:alpha" maskUnits="userSpaceOnUse" x="110" y="104" width="102" height="113">
<path d="M117.358 194.222C112.828 191.607 110.038 186.774 110.038 181.543L110.038 140.072C110.038 134.842 112.828 130.009 117.358 127.394L153.273 106.658C157.803 104.043 163.383 104.043 167.913 106.658L203.828 127.394C208.358 130.009 211.148 134.842 211.148 140.072L211.148 181.543C211.148 186.774 208.358 191.607 203.828 194.222L167.913 214.958C163.383 217.573 157.803 217.573 153.273 214.958L117.358 194.222Z" fill="white"/>
</mask>
<g mask="url(#mask1_101_29)">
<path d="M160.596 219.186L160.688 167.66C160.696 163.381 162.982 159.429 166.688 157.289L211.148 131.62L211.15 189.998L160.596 219.186Z" fill="white" fill-opacity="0.1"/>
<path d="M109.806 131.679L154.474 157.362C158.184 159.495 162.75 159.491 166.456 157.351L210.916 131.682L160.36 102.492L109.806 131.679Z" fill="white" fill-opacity="0.5"/>
</g>
<defs>
<linearGradient id="paint0_linear_101_29" x1="287.719" y1="42.5644" x2="39.3908" y2="15.7758" gradientUnits="userSpaceOnUse">
<stop stop-color="#BE1AF7"/>
<stop offset="1" stop-color="#391AF7"/>
</linearGradient>
<linearGradient id="paint1_linear_101_29" x1="238.383" y1="88.9919" x2="87.0578" y2="72.6676" gradientUnits="userSpaceOnUse">
<stop stop-color="white"/>
<stop offset="1" stop-color="#1A30F7"/>
</linearGradient>
</defs>
</svg>
