<svg width="1019" height="263" viewBox="0 0 1019 263" fill="none" xmlns="http://www.w3.org/2000/svg">
<path d="M60.1017 186.243C52.676 181.956 48.1017 174.033 48.1017 165.458L48.1017 97.3744C48.1017 88.8 52.676 80.8769 60.1017 76.5897L119.064 42.5478C126.49 38.2607 135.638 38.2607 143.064 42.5478L202.026 76.5897C209.452 80.8769 214.026 88.8 214.026 97.3744L214.026 165.458C214.026 174.033 209.452 181.956 202.026 186.243L143.064 220.285C135.638 224.572 126.49 224.572 119.064 220.285L60.1017 186.243Z" fill="url(#paint0_linear_1_48)"/>
<mask id="mask0_1_48" style="mask-type:alpha" maskUnits="userSpaceOnUse" x="48" y="39" width="167" height="185">
<path d="M60.1017 186.243C52.676 181.956 48.1017 174.033 48.1017 165.458L48.1017 97.3744C48.1017 88.8 52.676 80.8769 60.1017 76.5897L119.064 42.5478C126.49 38.2607 135.638 38.2607 143.064 42.5478L202.026 76.5897C209.452 80.8769 214.026 88.8 214.026 97.3744L214.026 165.458C214.026 174.033 209.452 181.956 202.026 186.243L143.064 220.285C135.638 224.572 126.49 224.572 119.064 220.285L60.1017 186.243Z" fill="white"/>
</mask>
<g mask="url(#mask0_1_48)">
<path d="M131.069 227.216L131.24 131.315L214.027 83.5186L214.029 179.319L131.069 227.216Z" fill="white" fill-opacity="0.5"/>
<path d="M47.7207 83.6154L130.859 131.417L213.645 83.6205L130.681 35.7182L47.7207 83.6154Z" fill="white" fill-opacity="0.3"/>
</g>
<rect x="110.226" y="211.551" width="117" height="117" transform="rotate(-120 110.226 211.551)" fill="white" fill-opacity="0.01"/>
<rect x="110.317" y="211.21" width="116.5" height="116.5" transform="rotate(-120 110.317 211.21)" stroke="#979797" stroke-opacity="0.01" stroke-width="0.5"/>
<path d="M88.3579 165.222C83.8283 162.607 81.0379 157.774 81.0379 152.543L81.0379 111.072C81.0379 105.842 83.8283 101.009 88.3579 98.3936L124.273 77.658C128.803 75.0428 134.383 75.0428 138.913 77.658L174.828 98.3936C179.358 101.009 182.148 105.842 182.148 111.072L182.148 152.543C182.148 157.774 179.358 162.607 174.828 165.222L138.913 185.958C134.383 188.573 128.803 188.573 124.273 185.958L88.3579 165.222Z" fill="url(#paint1_linear_1_48)"/>
<mask id="mask1_1_48" style="mask-type:alpha" maskUnits="userSpaceOnUse" x="81" y="75" width="102" height="113">
<path d="M88.3579 165.222C83.8283 162.607 81.0379 157.774 81.0379 152.543L81.0379 111.072C81.0379 105.842 83.8283 101.009 88.3579 98.3936L124.273 77.658C128.803 75.0428 134.383 75.0428 138.913 77.658L174.828 98.3936C179.358 101.009 182.148 105.842 182.148 111.072L182.148 152.543C182.148 157.774 179.358 162.607 174.828 165.222L138.913 185.958C134.383 188.573 128.803 188.573 124.273 185.958L88.3579 165.222Z" fill="white"/>
</mask>
<g mask="url(#mask1_1_48)">
<path d="M131.596 190.186L131.688 138.66C131.696 134.381 133.982 130.429 137.688 128.289L182.148 102.62L182.15 160.998L131.596 190.186Z" fill="white" fill-opacity="0.1"/>
<path d="M80.8058 102.679L125.474 128.362C129.184 130.495 133.75 130.491 137.456 128.351L181.916 102.682L131.36 73.4918L80.8058 102.679Z" fill="white" fill-opacity="0.5"/>
</g>
<path d="M282.568 183V168.58L333.449 98.8295H282.619V78.2727H365.46V92.6932L314.58 162.443H365.409V183H282.568ZM419.098 184.483C410.882 184.483 403.791 182.864 397.825 179.625C391.893 176.352 387.325 171.699 384.12 165.665C380.95 159.597 379.365 152.386 379.365 144.034C379.365 135.92 380.967 128.83 384.172 122.761C387.376 116.659 391.893 111.92 397.723 108.545C403.552 105.136 410.422 103.432 418.331 103.432C423.922 103.432 429.035 104.301 433.672 106.04C438.308 107.778 442.314 110.352 445.689 113.761C449.064 117.17 451.689 121.381 453.564 126.392C455.439 131.369 456.376 137.08 456.376 143.523V149.761H388.109V135.239H433.109C433.075 132.58 432.444 130.21 431.217 128.131C429.99 126.051 428.302 124.432 426.154 123.273C424.041 122.08 421.603 121.483 418.842 121.483C416.047 121.483 413.541 122.114 411.325 123.375C409.109 124.602 407.353 126.29 406.058 128.438C404.762 130.551 404.081 132.955 404.012 135.648V150.426C404.012 153.631 404.643 156.443 405.904 158.864C407.166 161.25 408.956 163.108 411.274 164.438C413.592 165.767 416.353 166.432 419.558 166.432C421.774 166.432 423.785 166.125 425.592 165.511C427.399 164.898 428.95 163.994 430.245 162.801C431.541 161.608 432.512 160.142 433.16 158.403L456.12 159.068C455.166 164.216 453.069 168.699 449.831 172.517C446.626 176.301 442.416 179.25 437.2 181.364C431.984 183.443 425.95 184.483 419.098 184.483ZM470.587 183V104.455H494.877V118.773H495.695C497.127 113.591 499.462 109.739 502.701 107.216C505.94 104.659 509.707 103.381 514.002 103.381C515.161 103.381 516.354 103.466 517.582 103.636C518.809 103.773 519.951 103.994 521.008 104.301V126.034C519.815 125.625 518.246 125.301 516.303 125.062C514.394 124.824 512.69 124.705 511.19 124.705C508.224 124.705 505.548 125.369 503.161 126.699C500.809 127.994 498.951 129.818 497.587 132.17C496.258 134.489 495.593 137.216 495.593 140.352V183H470.587ZM565.223 184.483C556.973 184.483 549.883 182.795 543.951 179.42C538.053 176.011 533.502 171.273 530.297 165.205C527.127 159.102 525.542 152.028 525.542 143.983C525.542 135.903 527.127 128.83 530.297 122.761C533.502 116.659 538.053 111.92 543.951 108.545C549.883 105.136 556.973 103.432 565.223 103.432C573.473 103.432 580.547 105.136 586.445 108.545C592.377 111.92 596.928 116.659 600.098 122.761C603.303 128.83 604.905 135.903 604.905 143.983C604.905 152.028 603.303 159.102 600.098 165.205C596.928 171.273 592.377 176.011 586.445 179.42C580.547 182.795 573.473 184.483 565.223 184.483ZM565.377 165.614C568.377 165.614 570.917 164.693 572.996 162.852C575.076 161.011 576.661 158.455 577.752 155.182C578.877 151.909 579.439 148.125 579.439 143.83C579.439 139.466 578.877 135.648 577.752 132.375C576.661 129.102 575.076 126.545 572.996 124.705C570.917 122.864 568.377 121.943 565.377 121.943C562.275 121.943 559.65 122.864 557.502 124.705C555.388 126.545 553.769 129.102 552.644 132.375C551.553 135.648 551.008 139.466 551.008 143.83C551.008 148.125 551.553 151.909 552.644 155.182C553.769 158.455 555.388 161.011 557.502 162.852C559.65 164.693 562.275 165.614 565.377 165.614ZM675.763 109.67C675.422 105.92 673.905 103.006 671.212 100.926C668.553 98.8125 664.751 97.7557 659.808 97.7557C656.536 97.7557 653.808 98.1818 651.626 99.0341C649.445 99.8864 647.808 101.062 646.717 102.562C645.626 104.028 645.064 105.716 645.03 107.625C644.962 109.193 645.269 110.574 645.95 111.767C646.666 112.96 647.689 114.017 649.019 114.938C650.382 115.824 652.019 116.608 653.928 117.29C655.837 117.972 657.984 118.568 660.371 119.08L669.371 121.125C674.553 122.25 679.121 123.75 683.075 125.625C687.064 127.5 690.405 129.733 693.098 132.324C695.825 134.915 697.888 137.898 699.286 141.273C700.683 144.648 701.399 148.432 701.433 152.625C701.399 159.239 699.729 164.915 696.422 169.653C693.115 174.392 688.359 178.023 682.155 180.545C675.984 183.068 668.536 184.33 659.808 184.33C651.047 184.33 643.411 183.017 636.899 180.392C630.388 177.767 625.325 173.778 621.712 168.426C618.098 163.074 616.24 156.307 616.138 148.125H640.376C640.581 151.5 641.484 154.312 643.087 156.562C644.689 158.812 646.888 160.517 649.683 161.676C652.513 162.835 655.786 163.415 659.501 163.415C662.911 163.415 665.808 162.955 668.195 162.034C670.615 161.114 672.473 159.835 673.769 158.199C675.064 156.562 675.729 154.687 675.763 152.574C675.729 150.597 675.115 148.909 673.922 147.511C672.729 146.08 670.888 144.852 668.399 143.83C665.945 142.773 662.808 141.801 658.99 140.915L648.047 138.358C638.979 136.278 631.837 132.92 626.621 128.284C621.405 123.614 618.814 117.307 618.848 109.364C618.814 102.886 620.553 97.2102 624.064 92.3352C627.575 87.4602 632.433 83.6591 638.638 80.9318C644.842 78.2045 651.916 76.8409 659.859 76.8409C667.973 76.8409 675.013 78.2216 680.979 80.9829C686.979 83.7102 691.632 87.5455 694.939 92.4886C698.246 97.4318 699.933 103.159 700.001 109.67H675.763ZM730.947 212.455C727.947 212.455 725.118 212.216 722.459 211.739C719.799 211.295 717.515 210.699 715.606 209.949L721.129 191.795C723.584 192.614 725.799 193.091 727.777 193.227C729.788 193.364 731.51 193.04 732.941 192.256C734.407 191.506 735.532 190.159 736.316 188.216L737.288 185.864L709.368 104.455H735.549L750.021 160.5H750.839L765.515 104.455H791.851L762.243 190.517C760.811 194.813 758.782 198.597 756.157 201.869C753.566 205.176 750.209 207.767 746.084 209.642C741.993 211.517 736.947 212.455 730.947 212.455ZM827.884 138.205V183H802.879V104.455H826.657V118.875H827.526C829.265 114.068 832.231 110.301 836.424 107.574C840.617 104.812 845.612 103.432 851.407 103.432C856.93 103.432 861.72 104.676 865.776 107.165C869.867 109.619 873.038 113.062 875.288 117.494C877.572 121.892 878.697 127.04 878.663 132.938V183H853.657V137.847C853.691 133.483 852.583 130.074 850.333 127.619C848.117 125.165 845.032 123.938 841.078 123.938C838.453 123.938 836.134 124.517 834.123 125.676C832.146 126.801 830.612 128.42 829.521 130.534C828.464 132.648 827.918 135.205 827.884 138.205ZM932.249 184.483C923.965 184.483 916.857 182.778 910.925 179.369C905.027 175.96 900.493 171.222 897.323 165.153C894.152 159.051 892.567 151.994 892.567 143.983C892.567 135.937 894.152 128.881 897.323 122.812C900.527 116.71 905.079 111.955 910.976 108.545C916.908 105.136 923.982 103.432 932.198 103.432C939.459 103.432 945.783 104.744 951.17 107.369C956.59 109.994 960.817 113.71 963.851 118.517C966.92 123.29 968.539 128.898 968.709 135.341H945.34C944.863 131.318 943.499 128.165 941.249 125.881C939.033 123.597 936.135 122.455 932.556 122.455C929.658 122.455 927.118 123.273 924.937 124.909C922.755 126.511 921.05 128.898 919.823 132.068C918.63 135.205 918.033 139.091 918.033 143.727C918.033 148.364 918.63 152.284 919.823 155.489C921.05 158.659 922.755 161.062 924.937 162.699C927.118 164.301 929.658 165.102 932.556 165.102C934.874 165.102 936.92 164.608 938.692 163.619C940.499 162.631 941.982 161.182 943.141 159.273C944.3 157.33 945.033 154.977 945.34 152.216H968.709C968.471 158.693 966.851 164.352 963.851 169.193C960.885 174.034 956.709 177.801 951.323 180.494C945.971 183.153 939.613 184.483 932.249 184.483Z" fill="#222222"/>
<rect x="0.203369" y="0.555664" width="1018.8" height="261.721" fill="black" style="mix-blend-mode:saturation"/>
<defs>
<linearGradient id="paint0_linear_1_48" x1="258.719" y1="13.5644" x2="10.3907" y2="-13.2242" gradientUnits="userSpaceOnUse">
<stop stop-color="#F7931A"/>
<stop offset="1" stop-color="#F7B11A"/>
</linearGradient>
<linearGradient id="paint1_linear_1_48" x1="209.383" y1="59.9919" x2="58.0578" y2="43.6676" gradientUnits="userSpaceOnUse">
<stop stop-color="white"/>
<stop offset="1" stop-color="#F7B11A"/>
</linearGradient>
</defs>
</svg>
