<svg width="262" height="263" viewBox="0 0 262 263" fill="none" xmlns="http://www.w3.org/2000/svg">
<path d="M60.0873 186.432C52.67 182.145 48.1017 174.224 48.1017 165.65L48.1017 97.472C48.1017 88.8922 52.6763 80.9623 60.1017 76.6707L119.064 42.5926C126.489 38.301 135.637 38.2999 143.059 42.5898L202.041 76.679C209.458 80.966 214.026 88.887 214.026 97.4609L214.026 165.639C214.026 174.219 209.452 182.149 202.026 186.441L143.064 220.519C135.639 224.81 126.491 224.811 119.069 220.522L60.0873 186.432Z" fill="url(#paint0_linear_3_22)"/>
<mask id="mask0_3_22" style="mask-type:alpha" maskUnits="userSpaceOnUse" x="48" y="39" width="167" height="185">
<path d="M60.0873 186.432C52.67 182.145 48.1017 174.224 48.1017 165.65L48.1017 97.472C48.1017 88.8922 52.6763 80.9623 60.1017 76.6707L119.064 42.5926C126.489 38.301 135.637 38.2999 143.059 42.5898L202.041 76.679C209.458 80.966 214.026 88.887 214.026 97.4609L214.026 165.639C214.026 174.219 209.452 182.149 202.026 186.441L143.064 220.519C135.639 224.81 126.491 224.811 119.069 220.522L60.0873 186.432Z" fill="white"/>
</mask>
<g mask="url(#mask0_3_22)">
<path d="M131.069 227.457L131.24 131.454L214.027 83.6069L214.029 179.509L131.069 227.457Z" fill="white" fill-opacity="0.5"/>
<path d="M47.7207 83.7039L130.859 131.556L213.645 83.709L130.681 35.7556L47.7207 83.7039Z" fill="white" fill-opacity="0.3"/>
</g>
<rect width="117.093" height="117.031" transform="matrix(-0.499601 -0.866256 0.865795 -0.500399 110.226 211.776)" fill="white" fill-opacity="0.01"/>
<rect x="0.0915485" y="-0.341664" width="116.593" height="116.531" transform="matrix(-0.499601 -0.866256 0.865795 -0.500399 110.659 211.342)" stroke="#979797" stroke-opacity="0.01" stroke-width="0.5"/>
<path d="M88.3491 165.392C83.8246 162.777 81.0379 157.946 81.0379 152.716L81.0379 111.187C81.0379 105.953 83.8284 101.116 88.3579 98.4979L124.273 77.7401C128.803 75.1223 134.382 75.1216 138.91 77.7385L174.837 98.5029C179.361 101.118 182.148 105.95 182.148 111.18L182.148 152.709C182.148 157.942 179.358 162.78 174.828 165.398L138.913 186.155C134.384 188.773 128.804 188.774 124.276 186.157L88.3491 165.392Z" fill="url(#paint1_linear_3_22)"/>
<mask id="mask1_3_22" style="mask-type:alpha" maskUnits="userSpaceOnUse" x="81" y="75" width="102" height="114">
<path d="M88.3491 165.392C83.8246 162.777 81.0379 157.946 81.0379 152.716L81.0379 111.187C81.0379 105.953 83.8284 101.116 88.3579 98.4979L124.273 77.7401C128.803 75.1223 134.382 75.1216 138.91 77.7385L174.837 98.5029C179.361 101.118 182.148 105.95 182.148 111.18L182.148 152.709C182.148 157.942 179.358 162.78 174.828 165.398L138.913 186.155C134.384 188.773 128.804 188.774 124.276 186.157L88.3491 165.392Z" fill="white"/>
</mask>
<g mask="url(#mask1_3_22)">
<path d="M131.596 190.388L131.688 138.806C131.696 134.523 133.982 130.567 137.689 128.425L182.148 102.729L182.15 161.169L131.596 190.388Z" fill="white" fill-opacity="0.1"/>
<path d="M80.8058 102.788L125.475 128.499C129.185 130.634 133.75 130.629 137.456 128.487L181.916 102.791L131.36 73.5695L80.8058 102.788Z" fill="white" fill-opacity="0.5"/>
</g>
<path d="M60.0873 186.432C52.67 182.145 48.1017 174.224 48.1017 165.65L48.1017 97.472C48.1017 88.8922 52.6763 80.9623 60.1017 76.6707L119.064 42.5926C126.489 38.301 135.637 38.2999 143.059 42.5898L202.041 76.679C209.458 80.966 214.026 88.887 214.026 97.4609L214.026 165.639C214.026 174.219 209.452 182.149 202.026 186.441L143.064 220.519C135.639 224.81 126.491 224.811 119.069 220.522L60.0873 186.432Z" fill="url(#paint2_linear_3_22)"/>
<mask id="mask2_3_22" style="mask-type:alpha" maskUnits="userSpaceOnUse" x="48" y="39" width="167" height="185">
<path d="M60.0873 186.432C52.67 182.145 48.1017 174.224 48.1017 165.65L48.1017 97.472C48.1017 88.8922 52.6763 80.9623 60.1017 76.6707L119.064 42.5926C126.489 38.301 135.637 38.2999 143.059 42.5898L202.041 76.679C209.458 80.966 214.026 88.887 214.026 97.4609L214.026 165.639C214.026 174.219 209.452 182.149 202.026 186.441L143.064 220.519C135.639 224.81 126.491 224.811 119.069 220.522L60.0873 186.432Z" fill="white"/>
</mask>
<g mask="url(#mask2_3_22)">
<path d="M131.069 227.457L131.24 131.454L214.027 83.6069L214.029 179.509L131.069 227.457Z" fill="white" fill-opacity="0.5"/>
<path d="M47.7207 83.7039L130.859 131.556L213.645 83.709L130.681 35.7556L47.7207 83.7039Z" fill="white" fill-opacity="0.3"/>
</g>
<rect width="117.093" height="117.031" transform="matrix(-0.499601 -0.866256 0.865795 -0.500399 110.226 211.776)" fill="white" fill-opacity="0.01"/>
<rect x="0.0915485" y="-0.341664" width="116.593" height="116.531" transform="matrix(-0.499601 -0.866256 0.865795 -0.500399 110.659 211.342)" stroke="#979797" stroke-opacity="0.01" stroke-width="0.5"/>
<path d="M88.3491 165.392C83.8246 162.777 81.0379 157.946 81.0379 152.716L81.0379 111.187C81.0379 105.953 83.8284 101.116 88.3579 98.4979L124.273 77.7401C128.803 75.1223 134.382 75.1216 138.91 77.7385L174.837 98.5029C179.361 101.118 182.148 105.95 182.148 111.18L182.148 152.709C182.148 157.942 179.358 162.78 174.828 165.398L138.913 186.155C134.384 188.773 128.804 188.774 124.276 186.157L88.3491 165.392Z" fill="url(#paint3_linear_3_22)"/>
<mask id="mask3_3_22" style="mask-type:alpha" maskUnits="userSpaceOnUse" x="81" y="75" width="102" height="114">
<path d="M88.3491 165.392C83.8246 162.777 81.0379 157.946 81.0379 152.716L81.0379 111.187C81.0379 105.953 83.8284 101.116 88.3579 98.4979L124.273 77.7401C128.803 75.1223 134.382 75.1216 138.91 77.7385L174.837 98.5029C179.361 101.118 182.148 105.95 182.148 111.18L182.148 152.709C182.148 157.942 179.358 162.78 174.828 165.398L138.913 186.155C134.384 188.773 128.804 188.774 124.276 186.157L88.3491 165.392Z" fill="white"/>
</mask>
<g mask="url(#mask3_3_22)">
<path d="M131.596 190.388L131.688 138.806C131.696 134.523 133.982 130.567 137.689 128.425L182.148 102.729L182.15 161.169L131.596 190.388Z" fill="white" fill-opacity="0.1"/>
<path d="M80.8058 102.788L125.475 128.499C129.185 130.634 133.75 130.629 137.456 128.487L181.916 102.791L131.36 73.5695L80.8058 102.788Z" fill="white" fill-opacity="0.5"/>
</g>
<rect y="1.00049" width="262" height="261.278" fill="black" style="mix-blend-mode:saturation"/>
<defs>
<linearGradient id="paint0_linear_3_22" x1="258.719" y1="13.5783" x2="10.3847" y2="-13.1825" gradientUnits="userSpaceOnUse">
<stop stop-color="#F7931A"/>
<stop offset="1" stop-color="#F7B11A"/>
</linearGradient>
<linearGradient id="paint1_linear_3_22" x1="209.383" y1="60.0552" x2="58.0541" y2="43.7479" gradientUnits="userSpaceOnUse">
<stop stop-color="white"/>
<stop offset="1" stop-color="#F7B11A"/>
</linearGradient>
<linearGradient id="paint2_linear_3_22" x1="258.719" y1="13.5783" x2="10.3847" y2="-13.1825" gradientUnits="userSpaceOnUse">
<stop stop-color="#F7931A"/>
<stop offset="1" stop-color="#F7B11A"/>
</linearGradient>
<linearGradient id="paint3_linear_3_22" x1="209.383" y1="60.0552" x2="58.0541" y2="43.7479" gradientUnits="userSpaceOnUse">
<stop stop-color="white"/>
<stop offset="1" stop-color="#F7B11A"/>
</linearGradient>
</defs>
</svg>
