<svg width="1019" height="262" viewBox="0 0 1019 262" fill="none" xmlns="http://www.w3.org/2000/svg">
<path d="M59.8983 185.687C52.4727 181.4 47.8983 173.477 47.8983 164.902L47.8983 96.8187C47.8983 88.2443 52.4727 80.3213 59.8983 76.0341L118.861 41.9922C126.286 37.705 135.435 37.705 142.861 41.9922L201.823 76.0341C209.249 80.3213 213.823 88.2443 213.823 96.8187L213.823 164.902C213.823 173.477 209.249 181.4 201.823 185.687L142.861 219.729C135.435 224.016 126.286 224.016 118.861 219.729L59.8983 185.687Z" fill="url(#paint0_linear_402_53)"/>
<mask id="mask0_402_53" style="mask-type:alpha" maskUnits="userSpaceOnUse" x="47" y="38" width="167" height="185">
<path d="M59.8983 185.687C52.4727 181.4 47.8983 173.477 47.8983 164.902L47.8983 96.8187C47.8983 88.2443 52.4727 80.3213 59.8983 76.0341L118.861 41.9922C126.286 37.705 135.435 37.705 142.861 41.9922L201.823 76.0341C209.249 80.3213 213.823 88.2443 213.823 96.8187L213.823 164.902C213.823 173.477 209.249 181.4 201.823 185.687L142.861 219.729C135.435 224.016 126.286 224.016 118.861 219.729L59.8983 185.687Z" fill="white"/>
</mask>
<g mask="url(#mask0_402_53)">
<path d="M130.865 226.66L131.037 130.759L213.823 82.9629L213.826 178.763L130.865 226.66Z" fill="white" fill-opacity="0.5"/>
<path d="M47.5174 83.0597L130.656 130.861L213.442 83.0648L130.478 35.1625L47.5174 83.0597Z" fill="white" fill-opacity="0.3"/>
</g>
<rect x="110.023" y="210.995" width="117" height="117" transform="rotate(-120 110.023 210.995)" fill="white" fill-opacity="0.01"/>
<rect x="110.114" y="210.654" width="116.5" height="116.5" transform="rotate(-120 110.114 210.654)" stroke="#979797" stroke-opacity="0.01" stroke-width="0.5"/>
<path d="M88.1545 164.666C83.6249 162.051 80.8346 157.218 80.8346 151.988L80.8346 110.517C80.8346 105.286 83.6249 100.453 88.1546 97.8379L124.07 77.1023C128.599 74.4871 134.18 74.4871 138.71 77.1023L174.625 97.8379C179.154 100.453 181.945 105.286 181.945 110.517L181.945 151.988C181.945 157.218 179.154 162.051 174.625 164.666L138.71 185.402C134.18 188.017 128.599 188.017 124.07 185.402L88.1545 164.666Z" fill="url(#paint1_linear_402_53)"/>
<mask id="mask1_402_53" style="mask-type:alpha" maskUnits="userSpaceOnUse" x="80" y="75" width="102" height="113">
<path d="M88.1545 164.666C83.6249 162.051 80.8346 157.218 80.8346 151.988L80.8346 110.517C80.8346 105.286 83.6249 100.453 88.1546 97.8379L124.07 77.1023C128.599 74.4871 134.18 74.4871 138.71 77.1023L174.625 97.8379C179.154 100.453 181.945 105.286 181.945 110.517L181.945 151.988C181.945 157.218 179.154 162.051 174.625 164.666L138.71 185.402C134.18 188.017 128.599 188.017 124.07 185.402L88.1545 164.666Z" fill="white"/>
</mask>
<g mask="url(#mask1_402_53)">
<path d="M131.393 189.63L131.485 138.104C131.493 133.825 133.779 129.873 137.485 127.734L181.945 102.065L181.947 160.443L131.393 189.63Z" fill="white" fill-opacity="0.1"/>
<path d="M80.6024 102.124L125.271 127.807C128.981 129.94 133.546 129.936 137.252 127.796L181.713 102.127L131.156 72.9363L80.6024 102.124Z" fill="white" fill-opacity="0.5"/>
</g>
<path d="M282.365 182.444V168.024L333.245 98.2739H282.416V77.7171H365.257V92.1375L314.376 161.888H365.206V182.444H282.365ZM418.894 183.927C410.678 183.927 403.587 182.308 397.622 179.069C391.69 175.797 387.122 171.143 383.917 165.109C380.747 159.041 379.161 151.831 379.161 143.478C379.161 135.365 380.764 128.274 383.968 122.206C387.173 116.103 391.69 111.365 397.519 107.99C403.349 104.581 410.218 102.876 418.127 102.876C423.718 102.876 428.832 103.745 433.468 105.484C438.105 107.223 442.11 109.797 445.485 113.206C448.86 116.615 451.485 120.825 453.36 125.836C455.235 130.814 456.173 136.524 456.173 142.967V149.206H387.906V134.683H432.906C432.872 132.024 432.241 129.655 431.014 127.575C429.786 125.495 428.099 123.876 425.951 122.717C423.837 121.524 421.4 120.927 418.639 120.927C415.843 120.927 413.337 121.558 411.122 122.819C408.906 124.047 407.15 125.734 405.855 127.882C404.559 129.995 403.877 132.399 403.809 135.092V149.87C403.809 153.075 404.44 155.888 405.701 158.308C406.962 160.694 408.752 162.552 411.07 163.882C413.389 165.211 416.15 165.876 419.355 165.876C421.57 165.876 423.582 165.569 425.389 164.956C427.195 164.342 428.747 163.439 430.042 162.245C431.337 161.052 432.309 159.586 432.957 157.848L455.917 158.513C454.962 163.66 452.866 168.143 449.627 171.961C446.423 175.745 442.212 178.694 436.997 180.808C431.781 182.888 425.747 183.927 418.894 183.927ZM470.384 182.444V103.899H494.674V118.217H495.492C496.924 113.035 499.259 109.183 502.498 106.66C505.736 104.103 509.503 102.825 513.799 102.825C514.958 102.825 516.151 102.91 517.378 103.081C518.606 103.217 519.748 103.439 520.804 103.745V125.478C519.611 125.069 518.043 124.745 516.1 124.507C514.191 124.268 512.486 124.149 510.986 124.149C508.02 124.149 505.344 124.814 502.958 126.143C500.606 127.439 498.748 129.263 497.384 131.615C496.054 133.933 495.39 136.66 495.39 139.797V182.444H470.384ZM565.02 183.927C556.77 183.927 549.679 182.24 543.747 178.865C537.85 175.456 533.298 170.717 530.094 164.649C526.923 158.547 525.338 151.473 525.338 143.427C525.338 135.348 526.923 128.274 530.094 122.206C533.298 116.103 537.85 111.365 543.747 107.99C549.679 104.581 556.77 102.876 565.02 102.876C573.27 102.876 580.344 104.581 586.242 107.99C592.173 111.365 596.725 116.103 599.895 122.206C603.1 128.274 604.702 135.348 604.702 143.427C604.702 151.473 603.1 158.547 599.895 164.649C596.725 170.717 592.173 175.456 586.242 178.865C580.344 182.24 573.27 183.927 565.02 183.927ZM565.173 165.058C568.173 165.058 570.713 164.138 572.793 162.297C574.872 160.456 576.458 157.899 577.548 154.626C578.673 151.353 579.236 147.569 579.236 143.274C579.236 138.91 578.673 135.092 577.548 131.819C576.458 128.547 574.872 125.99 572.793 124.149C570.713 122.308 568.173 121.388 565.173 121.388C562.071 121.388 559.446 122.308 557.298 124.149C555.185 125.99 553.566 128.547 552.441 131.819C551.35 135.092 550.804 138.91 550.804 143.274C550.804 147.569 551.35 151.353 552.441 154.626C553.566 157.899 555.185 160.456 557.298 162.297C559.446 164.138 562.071 165.058 565.173 165.058ZM675.559 109.115C675.219 105.365 673.702 102.45 671.008 100.37C668.349 98.2568 664.548 97.2 659.605 97.2C656.332 97.2 653.605 97.6262 651.423 98.4784C649.241 99.3307 647.605 100.507 646.514 102.007C645.423 103.473 644.861 105.16 644.827 107.069C644.758 108.638 645.065 110.018 645.747 111.211C646.463 112.405 647.486 113.461 648.815 114.382C650.179 115.268 651.815 116.052 653.724 116.734C655.633 117.416 657.781 118.013 660.167 118.524L669.167 120.569C674.349 121.694 678.917 123.194 682.872 125.069C686.861 126.944 690.202 129.177 692.895 131.768C695.622 134.359 697.684 137.342 699.082 140.717C700.48 144.092 701.196 147.876 701.23 152.069C701.196 158.683 699.525 164.359 696.219 169.098C692.912 173.836 688.156 177.467 681.952 179.99C675.781 182.513 668.332 183.774 659.605 183.774C650.844 183.774 643.207 182.461 636.696 179.836C630.184 177.211 625.122 173.223 621.508 167.87C617.895 162.518 616.037 155.751 615.934 147.569H640.173C640.378 150.944 641.281 153.757 642.883 156.007C644.486 158.257 646.684 159.961 649.48 161.12C652.309 162.28 655.582 162.859 659.298 162.859C662.707 162.859 665.605 162.399 667.991 161.478C670.412 160.558 672.27 159.28 673.565 157.643C674.861 156.007 675.525 154.132 675.559 152.018C675.525 150.041 674.912 148.353 673.719 146.956C672.525 145.524 670.684 144.297 668.196 143.274C665.741 142.217 662.605 141.245 658.787 140.359L647.844 137.802C638.775 135.723 631.633 132.365 626.417 127.728C621.202 123.058 618.611 116.751 618.645 108.808C618.611 102.331 620.349 96.6546 623.861 91.7796C627.372 86.9046 632.23 83.1034 638.434 80.3762C644.639 77.6489 651.713 76.2852 659.656 76.2852C667.77 76.2852 674.809 77.6659 680.775 80.4273C686.775 83.1546 691.429 86.9898 694.736 91.933C698.042 96.8762 699.73 102.603 699.798 109.115H675.559ZM730.744 211.899C727.744 211.899 724.914 211.66 722.255 211.183C719.596 210.74 717.312 210.143 715.403 209.393L720.926 191.24C723.38 192.058 725.596 192.535 727.573 192.672C729.585 192.808 731.306 192.484 732.738 191.7C734.204 190.95 735.329 189.603 736.113 187.66L737.085 185.308L709.164 103.899H735.346L749.818 159.944H750.636L765.312 103.899H791.647L762.039 189.961C760.607 194.257 758.579 198.041 755.954 201.314C753.363 204.62 750.005 207.211 745.88 209.086C741.789 210.961 736.744 211.899 730.744 211.899ZM827.681 137.649V182.444H802.675V103.899H826.454V118.319H827.323C829.062 113.513 832.028 109.745 836.221 107.018C840.414 104.257 845.408 102.876 851.204 102.876C856.726 102.876 861.516 104.12 865.573 106.609C869.664 109.064 872.834 112.507 875.084 116.939C877.368 121.336 878.493 126.484 878.459 132.382V182.444H853.454V137.291C853.488 132.927 852.38 129.518 850.13 127.064C847.914 124.609 844.829 123.382 840.874 123.382C838.249 123.382 835.931 123.961 833.92 125.12C831.942 126.245 830.408 127.865 829.317 129.978C828.261 132.092 827.715 134.649 827.681 137.649ZM932.046 183.927C923.762 183.927 916.654 182.223 910.722 178.814C904.824 175.405 900.29 170.666 897.12 164.598C893.949 158.495 892.364 151.439 892.364 143.427C892.364 135.382 893.949 128.325 897.12 122.257C900.324 116.155 904.875 111.399 910.773 107.99C916.705 104.581 923.779 102.876 931.995 102.876C939.256 102.876 945.58 104.189 950.966 106.814C956.387 109.439 960.614 113.155 963.648 117.961C966.716 122.734 968.335 128.342 968.506 134.785H945.137C944.659 130.763 943.296 127.609 941.046 125.325C938.83 123.041 935.932 121.899 932.353 121.899C929.455 121.899 926.915 122.717 924.733 124.353C922.551 125.956 920.847 128.342 919.62 131.513C918.426 134.649 917.83 138.535 917.83 143.172C917.83 147.808 918.426 151.728 919.62 154.933C920.847 158.103 922.551 160.507 924.733 162.143C926.915 163.745 929.455 164.547 932.353 164.547C934.671 164.547 936.716 164.052 938.489 163.064C940.296 162.075 941.779 160.626 942.938 158.717C944.097 156.774 944.83 154.422 945.137 151.66H968.506C968.267 158.138 966.648 163.797 963.648 168.638C960.682 173.478 956.506 177.245 951.12 179.939C945.767 182.598 939.409 183.927 932.046 183.927Z" fill="#222222"/>
<defs>
<linearGradient id="paint0_linear_402_53" x1="258.516" y1="13.0087" x2="10.1874" y2="-13.7798" gradientUnits="userSpaceOnUse">
<stop stop-color="#F7931A"/>
<stop offset="1" stop-color="#F7B11A"/>
</linearGradient>
<linearGradient id="paint1_linear_402_53" x1="209.18" y1="59.4362" x2="57.8545" y2="43.1119" gradientUnits="userSpaceOnUse">
<stop stop-color="white"/>
<stop offset="1" stop-color="#F7B11A"/>
</linearGradient>
</defs>
</svg>
